<?xml version="1.0" encoding="UTF-8"?>
<svg version="1.1" xmlns="http://www.w3.org/2000/svg" width="512" height="512">
<path d="M0 0 C168.96 0 337.92 0 512 0 C512 168.96 512 337.92 512 512 C343.04 512 174.08 512 0 512 C0 343.04 0 174.08 0 0 Z " fill="#ED3264" transform="translate(0,0)"/>
<path d="M0 0 C1.39395327 -0.00271495 2.7879051 -0.0062787 4.18185425 -0.01062012 C7.94430566 -0.01968735 11.70664658 -0.01622318 15.46909976 -0.00986195 C19.42154646 -0.00477145 23.37398418 -0.00950193 27.32643127 -0.01263428 C33.96291793 -0.0162655 40.59935997 -0.01149747 47.23583984 -0.00195312 C54.88789462 0.00892531 62.53984276 0.00540689 70.19189495 -0.00560594 C76.78242094 -0.01470828 83.37291499 -0.01594958 89.96344525 -0.0107286 C93.89057445 -0.00762448 97.81765368 -0.00715631 101.74477959 -0.01380157 C105.43929232 -0.01961729 109.13366881 -0.01550159 112.82816696 -0.00401306 C114.8157152 -0.00014576 116.80327509 -0.00601625 118.79081726 -0.01226807 C128.90854852 0.03512574 137.86233057 1.09040014 146.94750977 5.69628906 C147.97110596 6.21473389 147.97110596 6.21473389 149.01538086 6.74365234 C161.94660703 13.67294095 170.61967224 25.39456531 175.01000977 39.25878906 C176.34885987 45.16571346 176.15816809 51.10039315 176.15718079 57.12341309 C176.16085747 58.32739321 176.16453416 59.53137334 176.16832227 60.77183771 C176.17742198 64.10613264 176.18205282 67.44037845 176.18471158 70.77468109 C176.18862611 74.37406675 176.19820361 77.97343832 176.20692444 81.57281494 C176.22665647 90.2615919 176.23675092 98.95036997 176.24565223 107.63916373 C176.25004048 111.73570566 176.25540589 115.83224631 176.2606411 119.92878723 C176.27765012 133.55486533 176.29214293 147.18094264 176.29938984 160.80702972 C176.30129958 164.34042868 176.30321994 167.87382763 176.30517578 171.40722656 C176.30565952 172.28538318 176.30614326 173.1635398 176.30664166 174.06830722 C176.31493698 188.28486641 176.34026693 202.50134132 176.37275646 216.71786374 C176.40587473 231.32918331 176.4238429 245.94046013 176.42703408 260.55181742 C176.42919477 268.7492537 176.43787855 276.94656708 176.46349525 285.14396667 C176.48526751 292.1270544 176.49322075 299.10998935 176.48352847 306.09310716 C176.47900255 309.65137095 176.48076921 313.20931996 176.50028992 316.76753998 C176.61192198 338.33974935 175.73142956 354.96654434 160.38500977 371.50878906 C147.84243628 383.48038044 133.36700056 386.72078982 116.56518555 386.6628418 C115.14624498 386.66855764 113.72730901 386.67552654 112.30838013 386.68363953 C108.48589915 386.70145329 104.6636492 386.70042487 100.84113932 386.69469714 C97.6357228 386.69158777 94.43034955 386.69771711 91.22493923 386.70373589 C83.65537472 386.71774115 76.08592316 386.7162536 68.51635742 386.70483398 C60.73925862 386.69335965 52.96250496 386.70742594 45.18545163 386.73423046 C38.47847592 386.7564708 31.77160789 386.76300608 25.06459796 386.75715405 C21.07194359 386.75380275 17.07951028 386.75607647 13.08688736 386.77340508 C9.3290141 386.78900572 5.57164737 386.78477566 1.81379318 386.76609993 C-0.2006029 386.76072684 -2.21502247 386.7748281 -4.22937012 386.78979492 C-20.06968681 386.66319322 -33.83945352 381.42052956 -45.36499023 370.44628906 C-58.89678239 356.04707433 -60.59695045 340.80972027 -60.38061523 321.95800781 C-60.37313875 320.02603242 -60.36745249 318.09404935 -60.36346436 316.1620636 C-60.34831873 311.11990782 -60.30913465 306.07822574 -60.26464844 301.03625488 C-60.22345454 295.87416997 -60.20540223 290.71200721 -60.18530273 285.54980469 C-60.14262781 275.45259334 -60.07451354 265.35573086 -59.98999023 255.25878906 C-59.17234444 255.87346794 -59.17234444 255.87346794 -58.33818054 256.50056458 C-57.26223381 257.30864815 -57.26223381 257.30864815 -56.16455078 258.13305664 C-55.45445358 258.66659256 -54.74435638 259.20012848 -54.01274109 259.74983215 C-51.63665861 261.52237179 -49.23117916 263.24660301 -46.80249023 264.94628906 C-45.6055957 265.78740234 -45.6055957 265.78740234 -44.38452148 266.64550781 C-42.02999299 268.32571007 -42.02999299 268.32571007 -39.37757874 269.45811462 C-36.98999023 271.25878906 -36.98999023 271.25878906 -36.37767029 274.13380432 C-36.38307327 275.30499313 -36.38847626 276.47618195 -36.39404297 277.68286133 C-36.38795517 278.65428825 -36.38795517 278.65428825 -36.38174438 279.64533997 C-36.37622598 281.05144324 -36.38223945 282.4576282 -36.39840508 283.86364937 C-36.42384077 286.09774926 -36.41902157 288.33000466 -36.4065094 290.56419373 C-36.38574088 295.31676061 -36.40540945 300.06875972 -36.42749023 304.82128906 C-36.4486655 310.30721471 -36.4529606 315.79254166 -36.4269886 321.27845573 C-36.42365752 323.46444 -36.44475597 325.64925167 -36.46739197 327.83509827 C-36.48955624 338.09760793 -35.00935943 346.96497661 -27.83764648 354.72363281 C-21.95819566 359.60867335 -14.87051653 362.37742927 -7.29219055 362.39923096 C-6.10481796 362.4049411 -4.91744537 362.41065125 -3.6940918 362.41653442 C-1.73741577 362.41821121 -1.73741577 362.41821121 0.25878906 362.41992188 C1.64524976 362.42455084 3.03170918 362.42957561 4.41816711 362.43496704 C8.18700098 362.44808819 11.95581703 362.4545358 15.72467017 362.4589777 C18.08077531 362.46190977 20.43687559 362.4660149 22.79297829 362.47048187 C30.16877586 362.48415799 37.54456233 362.49382326 44.92037171 362.49768376 C53.4265379 362.50216057 61.93254308 362.51969038 70.43866032 362.54868436 C77.01798794 362.57032964 83.59727035 362.58038961 90.17663318 362.58172488 C94.10383311 362.58277116 98.03088171 362.58864077 101.95804405 362.60654449 C105.65578399 362.62307383 109.35325967 362.62515729 113.05102348 362.61640549 C115.04619143 362.61527301 117.0413508 362.62895402 119.03646851 362.64315796 C125.75227087 362.61202836 130.90923421 362.13766712 137.01000977 359.25878906 C130.3448852 354.92308138 123.67813253 350.58988423 117.01000977 346.25878906 C115.91462891 345.54722656 115.91462891 345.54722656 114.79711914 344.82128906 C105.85051617 339.01248018 96.87426247 333.25136992 87.88500977 327.50878906 C77.65597249 320.97264316 67.47526181 314.36558574 57.31469727 307.72363281 C50.5710347 303.31543256 43.80585124 298.94077992 37.03833008 294.56933594 C33.52768181 292.30102107 30.01896863 290.02971608 26.51000977 287.75878906 C25.09335183 286.84210891 23.67668517 285.92544222 22.26000977 285.00878906 C13.76000977 279.50878906 5.26000977 274.00878906 -3.23999023 268.50878906 C-3.94172363 268.05479736 -4.64345703 267.60080566 -5.36645508 267.13305664 C-6.77850119 266.2192365 -8.19028652 265.30501326 -9.60180664 264.39038086 C-13.21210031 262.05173415 -16.82710399 259.72095552 -20.45092773 257.40332031 C-24.64863452 254.71560656 -28.82462898 251.99630524 -32.98999023 249.25878906 C-34.57166992 248.22818359 -34.57166992 248.22818359 -36.18530273 247.17675781 C-48.33058229 238.87128112 -56.1696585 227.74361142 -59.59960938 213.41137695 C-60.26984227 209.71566501 -60.28709144 206.06783095 -60.23999023 202.32128906 C-60.23177246 201.5264209 -60.22355469 200.73155273 -60.21508789 199.91259766 C-59.91303951 184.10539922 -52.4521332 172.5069049 -43.80249023 159.57128906 C-43.04313364 158.42471835 -42.28451644 157.27765764 -41.52661133 156.13012695 C-40.03174302 153.86761546 -38.53419863 151.60691792 -37.03442383 149.34765625 C-34.36574061 145.31563092 -31.73438931 141.2604383 -29.11499023 137.19628906 C-28.2569238 135.86815988 -27.39885098 134.54003481 -26.54077148 133.21191406 C-25.22449773 131.17242979 -23.90865046 129.13267119 -22.59301758 127.09277344 C-19.81405425 122.78486023 -17.02933494 118.48079293 -14.23608398 114.18212891 C-13.08516728 112.40569439 -11.94313123 110.62386106 -10.80249023 108.84082031 C-1.4765241 94.46936078 9.21120457 84.14906112 26.20922852 79.68066406 C47.36259559 76.49438283 62.12876778 83.06192358 79.35620117 94.49951172 C82.14076194 96.34546801 84.93870677 98.16954069 87.74047852 99.98925781 C91.66264915 102.53757733 95.58070197 105.09198376 99.49438477 107.65332031 C106.30274914 112.1073795 113.13437248 116.52508459 119.96850586 120.93945312 C122.09379222 122.31293405 124.21805396 123.68798729 126.34204102 125.06347656 C127.07116699 125.5355957 127.80029297 126.00771484 128.55151367 126.49414062 C129.9015367 127.36835349 131.25148281 128.24268517 132.60131836 129.1171875 C137.15851698 132.06725811 141.72364964 135.00488781 146.29052734 137.93994141 C147.26175411 138.56421272 147.26175411 138.56421272 148.25260162 139.20109558 C149.83837706 140.22036919 151.42418965 141.23958498 153.01000977 142.25878906 C153.10295201 130.3231401 153.17389748 118.38757815 153.21725845 106.45164013 C153.23807629 100.90846604 153.26628756 95.36554072 153.31176758 89.82250977 C153.3554327 84.46677031 153.37919047 79.11126919 153.38951874 73.75536537 C153.39687312 71.71855229 153.41123403 69.68175131 153.43292999 67.64504051 C153.68790421 48.2925082 153.68790421 48.2925082 144.07641602 31.98144531 C137.66152601 26.63368256 130.52201772 24.14246957 122.27461243 24.11834717 C121.10413864 24.11263702 119.93366486 24.10692688 118.72772217 24.1010437 C117.44713928 24.09992584 116.1665564 24.09880798 114.84716797 24.09765625 C113.48188646 24.09302571 112.11660624 24.08800073 110.75132751 24.08261108 C107.04446721 24.0695056 103.33762501 24.06304545 99.63074517 24.05860043 C97.3123165 24.05566599 94.99389273 24.05156043 92.67546654 24.04709625 C85.41446656 24.03342462 78.15347784 24.023757 70.89246589 24.01989436 C62.52441983 24.01541785 54.15653745 23.99788753 45.78854114 23.96889377 C39.31193692 23.94723636 32.83537862 23.93718788 26.3587386 23.93585324 C22.4946778 23.93480788 18.63077094 23.92895794 14.76674843 23.91103363 C11.12808673 23.8944831 7.48969352 23.89243099 3.85100746 23.90117264 C1.89063175 23.90230292 -0.06973534 23.88863859 -2.03005981 23.87442017 C-11.64400014 23.91961916 -19.49185512 25.29552351 -27.13061523 31.37597656 C-31.58128208 35.88274425 -35.9267822 42.4315998 -36.03381348 48.9122467 C-35.99808228 49.98188156 -35.96235107 51.05151642 -35.92553711 52.15356445 C-35.89061157 53.37076675 -35.85568604 54.58796906 -35.81970215 55.84205627 C-35.80043167 56.49445345 -35.78116119 57.14685062 -35.76130676 57.81901741 C-35.65155779 62.0727816 -35.62226122 66.32801391 -35.58246613 70.58290958 C-35.54346642 74.28835821 -35.47522555 77.98805197 -35.33520508 81.69116211 C-34.53111738 103.82870633 -38.03071035 117.20093285 -52.01171875 134.70797729 C-53.83480661 137.05869306 -55.42749047 139.43078878 -56.97241211 141.9699707 C-57.63821289 143.05528076 -58.30401367 144.14059082 -58.98999023 145.25878906 C-59.31999023 145.25878906 -59.64999023 145.25878906 -59.98999023 145.25878906 C-60.03640079 132.3758602 -60.07190376 119.49295134 -60.09361458 106.60995579 C-60.10403646 100.62739158 -60.11816659 94.64488472 -60.14086914 88.66235352 C-60.1626543 82.88519161 -60.17457086 77.10808475 -60.17974472 71.33088493 C-60.18343029 69.1305651 -60.19062723 66.93024816 -60.20145035 64.72995186 C-60.21604057 61.63997085 -60.21796502 58.55021518 -60.21704102 55.46020508 C-60.22423157 54.55748871 -60.23142212 53.65477234 -60.23883057 52.72470093 C-60.19300555 38.4940203 -55.23637143 26.82064944 -45.33764648 16.50878906 C-31.97216572 3.69927671 -18.19298046 -0.05713621 0 0 Z " fill="#F5FAFC" transform="translate(197.989990234375,62.7412109375)"/>
<path d="M0 0 C3.00596817 1.87114577 5.97619806 3.78951418 8.94042969 5.72607422 C10.02710938 6.42885498 11.11378906 7.13163574 12.23339844 7.85571289 C15.5995284 10.03334908 18.95765431 12.2230772 22.31542969 14.41357422 C24.36484493 15.7470058 26.41432182 17.08034264 28.46386719 18.41357422 C32.31532789 20.92147991 36.1640306 23.43354722 40.01074219 25.94873047 C44.72913365 29.03305063 49.45646928 32.10321389 54.19042969 35.16357422 C55.2062915 35.8205127 55.2062915 35.8205127 56.24267578 36.49072266 C59.69758903 38.72405052 63.15436588 40.95446547 66.61230469 43.18310547 C73.70802955 47.7598081 80.78549283 52.36126868 87.81542969 57.03857422 C88.45689941 57.46468994 89.09836914 57.89080566 89.75927734 58.32983398 C94.19175603 61.28990056 94.19175603 61.28990056 95.31542969 62.41357422 C95.402568 64.12129779 95.42242976 65.83256071 95.41308594 67.54248047 C95.40986328 68.57695312 95.40664063 69.61142578 95.40332031 70.67724609 C95.39494141 71.76585937 95.3865625 72.85447266 95.37792969 73.97607422 C95.37341797 75.06855469 95.36890625 76.16103516 95.36425781 77.28662109 C95.35242795 79.99565917 95.33594512 82.70459021 95.31542969 85.41357422 C91.53771742 80.71739069 91.53771742 80.71739069 90.06933594 78.71044922 C81.81926418 67.99888064 67.57956677 60.31382648 54.31542969 58.41357422 C42.90024979 57.67968605 31.82643433 57.38453485 21.31542969 62.41357422 C20.37570312 62.84927734 19.43597656 63.28498047 18.46777344 63.73388672 C3.6924675 71.17234886 -5.84532306 83.43824336 -11.02832031 99.01123047 C-15.13896448 114.05912428 -12.99919351 130.71153359 -5.68457031 144.41357422 C2.77418632 158.07402604 14.37442544 166.27285968 29.51464844 171.52294922 C44.90508617 175.12934162 61.14379006 172.64022471 74.81542969 164.97607422 C82.53501356 160.12580658 87.48910409 155.1269618 92.67871094 147.64404297 C93.21882812 146.90798828 93.75894531 146.17193359 94.31542969 145.41357422 C94.64542969 145.41357422 94.97542969 145.41357422 95.31542969 145.41357422 C95.31542969 173.79357422 95.31542969 202.17357422 95.31542969 231.41357422 C88.56526128 230.28854615 88.56526128 230.28854615 85.38183594 228.21826172 C84.66237793 227.75734131 83.94291992 227.2964209 83.20166016 226.8215332 C82.4348291 226.31565674 81.66799805 225.80978027 80.87792969 225.28857422 C80.05953613 224.76013916 79.24114258 224.2317041 78.39794922 223.68725586 C75.69706711 221.93946229 73.00612765 220.17699884 70.31542969 218.41357422 C68.39528555 217.16421706 66.47470554 215.91552957 64.55371094 214.66748047 C60.64250774 212.12355009 56.73522676 209.57375014 52.83105469 207.01904297 C48.04306342 203.88671994 43.24572625 200.76927175 38.44042969 197.66357422 C37.76222168 197.2252124 37.08401367 196.78685059 36.38525391 196.33520508 C35.03816059 195.46472821 33.69099336 194.59436571 32.34375 193.72412109 C28.83310173 191.45580623 25.32438855 189.18450124 21.81542969 186.91357422 C20.39877175 185.99689406 18.98210509 185.08022738 17.56542969 184.16357422 C-2.26790365 171.33024089 -22.10123698 158.49690755 -41.93457031 145.66357422 C-42.63622314 145.20958252 -43.33787598 144.75559082 -44.06079102 144.2878418 C-45.47345859 143.37372457 -46.88605657 142.45949979 -48.29858398 141.54516602 C-52.63521161 138.73828891 -56.97453636 135.93563889 -61.31567383 133.13574219 C-63.45696118 131.75199365 -65.59445795 130.36254522 -67.73144531 128.97216797 C-70.18538292 127.37663525 -72.65121577 125.80548804 -75.13769531 124.26123047 C-84.11558182 118.56546077 -91.02143327 112.63577967 -94.68457031 102.41357422 C-96.3884996 90.74536278 -93.99469301 82.35243298 -87.68457031 72.41357422 C-87.30977539 71.82253906 -86.93498047 71.23150391 -86.54882812 70.62255859 C-84.11077929 66.83003819 -81.57685367 63.107706 -79.02587891 59.390625 C-76.70970947 55.97665702 -74.48043197 52.50704954 -72.24707031 49.03857422 C-71.78905029 48.32910645 -71.33103027 47.61963867 -70.85913086 46.88867188 C-69.01122944 44.02567129 -67.16579268 41.16108905 -65.32128906 38.29589844 C-62.59857342 34.06764659 -59.86754976 29.84498266 -57.12451172 25.62988281 C-56.12930786 24.09809905 -55.13697616 22.56444679 -54.14697266 21.02929688 C-52.58467174 18.6100785 -51.01081168 16.19872694 -49.43457031 13.78857422 C-48.96349854 13.05453369 -48.49242676 12.32049316 -48.00708008 11.56420898 C-36.21517225 -6.34460972 -18.7664666 -11.08989632 0 0 Z " fill="#ED3163" transform="translate(255.6845703125,170.58642578125)"/>
<path d="M0 0 C7.87862078 5.66354529 14.73197763 13.89201613 16.4453125 23.7578125 C17.40626336 35.2419629 15.48083959 44.95666761 8.0625 53.98046875 C0.79699434 61.96550516 -6.91159844 65.72178348 -17.78588867 66.33251953 C-28.76325604 66.58275055 -36.91494905 63.44007425 -45.0546875 55.8828125 C-52.36598221 47.93443402 -55.00691181 38.73238138 -54.80078125 28.07421875 C-54.00624707 17.36692481 -49.43845987 10.22881706 -41.7421875 3.0078125 C-29.99632971 -6.56856783 -13.19231008 -7.90068709 0 0 Z " fill="#ED3264" transform="translate(319.5546875,255.2421875)"/>
<path d="M0 0 C1.11125244 -0.00945648 2.22250488 -0.01891296 3.36743164 -0.02865601 C5.16748657 -0.01954697 5.16748657 -0.01954697 7.00390625 -0.01025391 C8.2355249 -0.01312408 9.46714355 -0.01599426 10.73608398 -0.01895142 C14.00988582 -0.02151799 17.28326162 -0.00943251 20.55700684 0.00732422 C22.5645101 0.01317806 24.57161994 0.00734564 26.57910156 -0.00292969 C30.4292232 -0.02142621 34.27876059 -0.01922633 38.12890625 -0.01025391 C39.32894287 -0.0163266 40.52897949 -0.02239929 41.76538086 -0.02865601 C43.43225952 -0.01447128 43.43225952 -0.01447128 45.1328125 0 C46.6014978 0.00358017 46.6014978 0.00358017 48.09985352 0.00723267 C50.56640625 0.38818359 50.56640625 0.38818359 52.37866211 1.72494507 C54.24705056 4.34131297 54.02016705 6.27668094 53.56640625 9.38818359 C50.56779371 12.33388262 48.34719363 12.76586619 44.21875 12.77636719 C42.61688843 12.79055191 42.61688843 12.79055191 40.98266602 12.80502319 C39.83467529 12.7989505 38.68668457 12.79287781 37.50390625 12.78662109 C36.32046631 12.78949127 35.13702637 12.79236145 33.91772461 12.7953186 C31.41617352 12.79735966 28.91460648 12.79182697 26.41308594 12.77929688 C22.58101766 12.7632448 18.75000417 12.77914521 14.91796875 12.79833984 C12.48827892 12.79635742 10.05858974 12.79251377 7.62890625 12.78662109 C6.48091553 12.79269379 5.3329248 12.79876648 4.15014648 12.80502319 C3.08223877 12.79556671 2.01433105 12.78611023 0.9140625 12.77636719 C-0.02429443 12.77398041 -0.96265137 12.77159363 -1.92944336 12.76913452 C-4.91115406 12.31553339 -6.29251212 11.4914837 -8.43359375 9.38818359 C-8.88735455 6.27668094 -9.11423806 4.34131297 -7.24584961 1.72494507 C-4.75740061 -0.11059197 -3.07691537 0.0075005 0 0 Z " fill="#F5F7FA" transform="translate(233.43359375,94.61181640625)"/>
</svg>
