<?xml version="1.0" encoding="UTF-8"?>
<svg version="1.1" xmlns="http://www.w3.org/2000/svg" width="512" height="512">
<path d="M0 0 C168.96 0 337.92 0 512 0 C512 168.96 512 337.92 512 512 C343.04 512 174.08 512 0 512 C0 343.04 0 174.08 0 0 Z " fill="#11998F" transform="translate(0,0)"/>
<path d="M0 0 C20.39338263 -0.04680731 40.7867543 -0.08203154 61.1801796 -0.10362434 C70.65008596 -0.1139186 80.11995887 -0.12794341 89.58984375 -0.15087891 C97.84780645 -0.1708696 106.10574491 -0.18372988 114.36373115 -0.18817699 C118.73261248 -0.19077478 123.10142448 -0.19684183 127.47028351 -0.21146011 C131.59064116 -0.22513393 135.71090156 -0.22920303 139.83127975 -0.22621536 C141.3355983 -0.22676117 142.83992043 -0.23067984 144.34421921 -0.23841095 C167.82559342 -0.35307064 188.37545345 5.51361441 205.31640625 22.22265625 C220.52633052 37.96393158 227.69063346 56.08112937 227.33227539 77.84472656 C226.92827997 90.23072255 224.24411487 99.85213316 219 111 C211.77491734 107.16458864 204.95124687 102.81241082 198.125 98.3125 C197.09375 97.63638672 196.0625 96.96027344 195 96.26367188 C191.32589563 93.85344022 187.65612969 91.43741979 184 89 C184.165 88.113125 184.33 87.22625 184.5 86.3125 C186.14096115 73.98042831 184.99693962 63.52206157 177.5625 53.1875 C169.41121309 45.08241764 159.68124971 42.26775262 148.55129051 42.18794155 C146.00467076 42.20737815 143.4601353 42.26116481 140.9140625 42.31640625 C139.11805166 42.32949608 137.32201546 42.3394442 135.52597046 42.34642029 C130.84664327 42.37288039 126.16888823 42.44140467 121.49017334 42.51934814 C116.69679012 42.59154042 111.9031476 42.62305017 107.109375 42.65820312 C97.7389005 42.73280348 88.36958203 42.85194109 79 43 C79.99775703 43.62120476 79.99775703 43.62120476 81.01567078 44.25495911 C84.098446 46.17526731 87.18008509 48.09739169 90.26171875 50.01953125 C91.83028625 50.99605652 91.83028625 50.99605652 93.43054199 51.99230957 C100.61314008 56.47468282 107.73276107 61.04451867 114.8125 65.6875 C116.31303673 66.67112518 116.31303673 66.67112518 117.84388733 67.67462158 C118.73329514 68.25766052 119.62270294 68.84069946 120.5390625 69.44140625 C126.31493337 73.21856188 132.14713687 76.90181552 137.99145508 80.57177734 C144.66823006 84.77176415 151.28592371 89.05937813 157.8894043 93.37353516 C163.89670844 97.29613287 169.94097542 101.15783536 176 105 C177.72790055 106.09629748 179.45576567 107.19265081 181.18359375 108.2890625 C182.03840332 108.83143555 182.89321289 109.37380859 183.77392578 109.93261719 C187.56062078 112.33860891 191.34225887 114.75249566 195.12353516 117.16699219 C197.89471471 118.93290766 200.67177296 120.68927606 203.44921875 122.4453125 C224.70146417 135.95668694 242.12374491 150.96887999 248.4921875 176.40234375 C252.67725771 197.81058754 249.37619954 217.96451787 237.72265625 236.5625 C234.53176734 241.07749927 230.86473055 245.05745609 227 249 C226.33484375 249.70125 225.6696875 250.4025 224.984375 251.125 C211.95980251 263.85129984 192.11947588 270.19594118 174.24879456 270.12025452 C173.49960705 270.12110894 172.75041955 270.12196337 171.97852939 270.12284368 C169.48509175 270.12448193 166.99172239 270.11900438 164.49829102 270.11352539 C162.70417787 270.11324314 160.91006461 270.113402 159.11595154 270.1139679 C154.25700672 270.11425437 149.39808668 270.10838178 144.53914762 270.10139394 C139.45692143 270.09513553 134.37469465 270.09455463 129.29246521 270.09336853 C119.67371614 270.09026255 110.05497847 270.08205904 100.43623441 270.07201904 C87.43476342 270.05874324 74.4332893 270.05335207 61.43181324 270.04751682 C40.95453363 270.03811867 20.47727806 270.01819484 0 270 C0 220.17 0 170.34 0 119 C13.674375 118.67 27.34875 118.34 41.4375 118 C45.69970459 117.85433594 49.96190918 117.70867187 54.35327148 117.55859375 C76.49033823 117.1189852 91.23021803 118.28242924 108.68527222 133.07617188 C111.77232958 135.64190242 115.05630937 137.71599147 118.48828125 139.78125 C119.97811523 140.73257813 119.97811523 140.73257813 121.49804688 141.703125 C123.42459923 142.93312373 125.35170989 144.16224831 127.27929688 145.390625 C132.45186106 148.6956033 137.60360408 152.03088266 142.73046875 155.40625 C143.73875732 156.06947266 144.7470459 156.73269531 145.78588867 157.41601562 C146.51654541 157.93873047 147.24720215 158.46144531 148 159 C148 159.33 148 159.66 148 160 C112.69 160 77.38 160 41 160 C41 182.77 41 205.54 41 229 C64.87899379 228.90931257 64.87899379 228.90931257 88.7578125 228.79101562 C98.50161013 228.73661803 108.24535613 228.68520131 117.98925781 228.65356445 C125.08707229 228.63050498 132.18475018 228.59701911 139.28245616 228.55129844 C143.03652226 228.52747274 146.79045398 228.50867454 150.54459381 228.50238609 C154.08725675 228.49628652 157.62957634 228.47611413 161.17211151 228.44572449 C163.07344044 228.43291136 164.9748499 228.43450079 166.8762207 228.4367218 C179.0563191 228.3051633 189.81681831 226.44656284 199 218 C205.63112671 210.31742613 208.61897673 201.7989704 208.28125 191.6953125 C207.29026433 182.19836654 202.62390553 173.69762808 195.25 167.625 C190.0516951 163.83566326 184.50439332 160.57104718 178.99682617 157.25610352 C174.10082105 154.30686597 169.2962733 151.26521365 164.5625 148.0625 C158.98045993 144.29048532 153.32951157 140.64666944 147.625 137.0625 C141.68343883 133.32897143 135.75978127 129.57246474 129.875 125.75 C122.76983021 121.13546877 115.63851767 116.56276387 108.5 112 C100.82924034 107.09628674 93.16877134 102.17795283 85.53125 97.22265625 C79.20423143 93.12226152 72.85236834 89.06097833 66.5 85 C58.83288449 80.09852258 51.17522232 75.18369275 43.54223633 70.22924805 C39.31283326 67.48741052 35.07187994 64.76426064 30.82421875 62.05078125 C29.72851562 61.35082031 28.6328125 60.65085938 27.50390625 59.9296875 C25.36266684 58.5627243 23.22078543 57.19676597 21.078125 55.83203125 C19.11420626 54.57835854 17.16288038 53.30464019 15.22746277 52.00740051 C12.09030135 49.94508908 12.09030135 49.94508908 8.81123352 48.62553406 C5.03278877 46.79142398 2.7155788 45.23425984 0 42 C-2.01868841 35.11044016 -1.1220532 27.57369062 -0.75 20.5 C-0.68975412 18.5131816 -0.63501041 16.52618826 -0.5859375 14.5390625 C-0.45419814 9.68836767 -0.24750959 4.84611082 0 0 Z " fill="#F3F4F4" transform="translate(131,121)"/>
</svg>
