<?xml version="1.0" encoding="UTF-8"?>
<svg version="1.1" xmlns="http://www.w3.org/2000/svg" width="512" height="512">
<path d="M0 0 C168.96 0 337.92 0 512 0 C512 168.96 512 337.92 512 512 C343.04 512 174.08 512 0 512 C0 343.04 0 174.08 0 0 Z " fill="#161A20" transform="translate(0,0)"/>
<path d="M0 0 C0.70334473 0.2263916 1.40668945 0.4527832 2.13134766 0.68603516 C47.32551206 15.45823776 82.48500696 47.3885502 103.8671875 89.52734375 C122.14521883 126.96358164 125.38384605 171.32037047 113 211 C112.76297363 211.76425293 112.52594727 212.52850586 112.28173828 213.31591797 C108.39406484 225.61834221 103.39646038 236.80256822 97 248 C94 248 94 248 92.0827179 246.44348145 C91.36101913 245.71512085 90.63932037 244.98676025 89.89575195 244.23632812 C89.07512772 243.41547729 88.25450348 242.59462646 87.40901184 241.74890137 C86.52767075 240.85207642 85.64632965 239.95525146 84.73828125 239.03125 C83.83248825 238.12121216 82.92669525 237.21117432 81.99345398 236.27355957 C79.58493738 233.85358629 77.18556485 231.42473949 74.78796387 228.99395752 C72.33999601 226.51530652 69.88351798 224.045122 67.42773438 221.57421875 C62.61010924 216.72441501 57.80208786 211.86518725 53 207 C53.27406677 206.26068237 53.54813354 205.52136475 53.83050537 204.75964355 C54.37024994 203.29210632 54.37024994 203.29210632 54.92089844 201.79492188 C55.4557486 200.34563293 55.4557486 200.34563293 56.00140381 198.86706543 C65.48951869 171.6257777 63.23121255 140.4212215 50.81640625 114.58203125 C46.13488106 105.22648732 40.78950984 96.96056871 34 89 C33.39671875 88.25105469 32.7934375 87.50210938 32.171875 86.73046875 C16.65237234 68.11358636 -9.0634894 55.01851473 -33 52 C-37.96200605 51.73010158 -42.90673722 51.72027958 -47.875 51.75 C-49.16019531 51.74226563 -50.44539062 51.73453125 -51.76953125 51.7265625 C-79.47990484 51.78282722 -104.30981354 61.69231986 -125 80 C-125.82757813 80.72703125 -126.65515625 81.4540625 -127.5078125 82.203125 C-146.25553044 99.84035093 -158.71079902 125.88890018 -160.20532227 151.52148438 C-160.30228318 155.14201963 -160.32906956 158.75323005 -160.3125 162.375 C-160.30758545 163.65068848 -160.3026709 164.92637695 -160.29760742 166.24072266 C-160.18588996 175.209057 -159.56785895 183.36453886 -157 192 C-156.6596875 193.21945312 -156.319375 194.43890625 -155.96875 195.6953125 C-147.337263 224.0975704 -127.67227317 246.58870443 -102 261 C-97.76863356 263.24026663 -93.4305458 265.18667975 -89 267 C-88.27167969 267.30421875 -87.54335937 267.6084375 -86.79296875 267.921875 C-65.07820381 276.0597219 -35.71603894 276.42490863 -14.15234375 267.6484375 C-13.08693359 267.32746094 -13.08693359 267.32746094 -12 267 C-10.83670166 266.63865967 -9.67340332 266.27731934 -8.47485352 265.9050293 C-5.447167 265.55681388 -4.28258841 265.81498365 -1.70176697 267.50469971 C0.90454779 269.86045078 3.33223771 272.32205817 5.75 274.87109375 C6.64871826 275.78254654 7.54743652 276.69399933 8.47338867 277.6330719 C10.85455166 280.04848614 13.20744868 282.48968628 15.55535889 284.93737793 C17.95913392 287.43346913 20.38881453 289.90405834 22.81640625 292.37695312 C27.56844935 297.22819595 32.29388332 302.10421458 37 307 C34.37967214 309.69228556 32.22060158 311.63110432 28.8046875 313.21875 C27.60585938 313.78142578 27.60585938 313.78142578 26.3828125 314.35546875 C25.55523437 314.73316406 24.72765625 315.11085938 23.875 315.5 C23.070625 315.87769531 22.26625 316.25539063 21.4375 316.64453125 C-19.49865516 335.67395801 -65.81507032 337.25287547 -108.27734375 322.1796875 C-131.5366522 313.48482782 -151.19690313 300.17751221 -169 283 C-169.78761719 282.26394531 -170.57523438 281.52789062 -171.38671875 280.76953125 C-201.202519 252.20256033 -218.01465425 209.47490536 -219.2734375 168.68359375 C-219.62726902 151.22915444 -218.6334725 134.95555573 -214 118 C-213.77538086 117.17516113 -213.55076172 116.35032227 -213.31933594 115.50048828 C-201.28769526 72.96942658 -171.51495515 36.49811915 -133.45947266 14.47045898 C-123.66731518 9.00372402 -113.62805327 4.56404019 -103 1 C-102.29762207 0.76055664 -101.59524414 0.52111328 -100.87158203 0.27441406 C-69.33360025 -10.21158311 -31.58930874 -10.37310988 0 0 Z " fill="#DFB60A" transform="translate(305,93)"/>
<path d="M0 0 C8.79681576 4.74812941 16.05335604 11.94174347 23.06347656 18.96044922 C23.874599 19.76485443 24.68572144 20.56925964 25.52142334 21.39804077 C28.17057481 24.028371 30.81228869 26.66601076 33.453125 29.3046875 C35.30761588 31.1527423 37.16225295 33.00065041 39.01702881 34.84841919 C42.89062922 38.70929371 46.75937223 42.57499144 50.62597656 46.44287109 C55.07602595 50.89412337 59.53713216 55.33407697 64.0035212 59.76892841 C68.32763676 64.06361228 72.64050583 68.36942751 76.94933319 72.67944717 C78.77206333 74.49982659 80.59801584 76.31698568 82.42731476 78.13076401 C84.98756715 80.67130868 87.53470431 83.22435087 90.07910156 85.78076172 C90.82728149 86.51770264 91.57546143 87.25464355 92.34631348 88.01391602 C99.56283521 95.31685011 105.2807241 102.98640755 105.6875 113.5 C105.58784055 121.78280747 102.66088641 129.45362339 96.9375 135.5 C89.96202607 141.73081549 83.42743958 143.84206751 74.18359375 143.70703125 C61.42134773 142.78676045 52.98116991 133.46767672 44.38378906 124.87768555 C43.54194565 124.04416565 42.70010223 123.21064575 41.83274841 122.35186768 C39.07581197 119.6188558 36.32643531 116.87840321 33.578125 114.13671875 C32.62337948 113.18613996 31.66849101 112.23570473 30.71346283 111.28540993 C25.7162168 106.31256502 20.72463346 101.33410884 15.73779297 96.35083008 C11.11035661 91.72703265 6.46993263 87.11655378 1.82345605 82.51189774 C-2.18570666 78.53754325 -6.18507927 74.55350801 -10.17722344 70.5620597 C-12.55294732 68.18712436 -14.93345212 65.81757742 -17.32189178 63.45538902 C-19.98541678 60.81883377 -22.63255288 58.16679844 -25.27636719 55.51049805 C-26.05776566 54.74393387 -26.83916412 53.97736969 -27.64424133 53.18757629 C-34.80897912 45.92646973 -39.74091281 37.81487128 -40.0625 27.4375 C-40.01722827 20.66937605 -38.33048073 16.12814124 -34.6875 10.5 C-34.089375 9.571875 -33.49125 8.64375 -32.875 7.6875 C-24.21821952 -0.96928048 -11.69392952 -4.71092348 0 0 Z " fill="#DFB50A" transform="translate(320.6875,282.5)"/>
<path d="M0 0 C8.63483754 4.57917004 14.84264496 11.01978092 18.05859375 20.3359375 C20.39214959 30.45284418 18.6751127 39.06627549 13.6875 48.0625 C9.58809898 54.58261557 2.79522983 59.68863868 -4.6796875 61.69921875 C-15.76160623 63.22832623 -24.94404292 62.72607925 -34.3125 56.0625 C-42.54290568 48.53630016 -46.28935293 40.42191943 -46.8125 29.375 C-46.66606463 20.19838355 -43.20082508 12.8902799 -37.0625 6.125 C-26.77760202 -3.26456087 -12.63109295 -6.23594953 0 0 Z " fill="#DEB50A" transform="translate(269.3125,225.9375)"/>
<path d="M0 0 C1.61102614 3.22205228 2.90350921 6.33510084 4.1875 9.6875 C9.9173921 23.48292937 19.56578849 31.15430256 33 37 C35.34054533 37.82468879 37.57743426 38.44941688 40 39 C40 39.33 40 39.66 40 40 C26.8 40 13.6 40 0 40 C0 26.8 0 13.6 0 0 Z " fill="#000000" transform="translate(0,472)"/>
<path d="M0 0 C0.33 0 0.66 0 1 0 C1 13.2 1 26.4 1 40 C-12.2 40 -25.4 40 -39 40 C-35.77794772 38.38897386 -32.66489916 37.09649079 -29.3125 35.8125 C-16.93442421 30.66249766 -8.20998854 21.93798281 -3 9.6328125 C-1.79012733 6.4474446 -0.80886499 3.30899315 0 0 Z " fill="#000000" transform="translate(511,472)"/>
<path d="M0 0 C13.2 0 26.4 0 40 0 C40 13.2 40 26.4 40 40 C38.38897386 36.77794772 37.09649079 33.66489916 35.8125 30.3125 C30.34027495 17.13743617 20.78989145 8.88335007 8 3 C5.3168753 2.1140626 2.78364601 1.52521623 0 1 C0 0.67 0 0.34 0 0 Z " fill="#000000" transform="translate(472,0)"/>
<path d="M0 0 C13.2 0 26.4 0 40 0 C37.07033128 1.46483436 34.36106707 2.63071934 31.3125 3.75 C19.71483386 8.40947291 10.43066821 16.22701185 5.0625 27.6875 C3.39801977 31.72816924 2.03730321 35.75648688 1 40 C0.67 40 0.34 40 0 40 C0 26.8 0 13.6 0 0 Z " fill="#000000" transform="translate(0,0)"/>
</svg>
