<?xml version="1.0" encoding="UTF-8"?>
<svg version="1.1" xmlns="http://www.w3.org/2000/svg" width="512" height="512">
<path d="M0 0 C168.96 0 337.92 0 512 0 C512 168.96 512 337.92 512 512 C343.04 512 174.08 512 0 512 C0 343.04 0 174.08 0 0 Z " fill="#652F80" transform="translate(0,0)"/>
<path d="M0 0 C7.8158298 5.25446235 12.96154534 13.50686718 14.7734375 22.71484375 C16.7947532 38.07684305 9.95521496 53.12389253 0.93359375 65.171875 C-9.62502516 77.84653615 -24.89605177 86.48288329 -41.2265625 88.71484375 C-54.66311262 89.70810002 -65.27655433 87.76632034 -76.2265625 79.71484375 C-81.59175992 74.91379799 -85.78411461 68.41763663 -86.46875 61.140625 C-86.47547979 58.99718768 -86.36238095 56.85398427 -86.2265625 54.71484375 C-85.22807702 56.68982164 -84.24907689 58.66539074 -83.33203125 60.6796875 C-79.10469872 69.76395529 -71.45404903 75.79870587 -62.2265625 79.58984375 C-51.26607747 82.7954497 -38.42536635 81.64379213 -28.2265625 76.71484375 C-24.43915939 74.54197243 -20.80180384 72.22032784 -17.2265625 69.71484375 C-18.2784375 70.22144531 -18.2784375 70.22144531 -19.3515625 70.73828125 C-20.3003125 71.18429687 -21.2490625 71.6303125 -22.2265625 72.08984375 C-23.1546875 72.53070313 -24.0828125 72.9715625 -25.0390625 73.42578125 C-35.83490932 77.79174871 -49.19805259 78.83367924 -60.3515625 75.08984375 C-69.20157756 71.23492921 -76.24312079 65.20641154 -80.5390625 56.46484375 C-83.36098729 49.0044515 -82.90565285 40.55596839 -82.2265625 32.71484375 C-81.5665625 31.72484375 -80.9065625 30.73484375 -80.2265625 29.71484375 C-80.20078125 30.45347656 -80.175 31.19210938 -80.1484375 31.953125 C-79.50484199 43.4647083 -76.99356223 52.18512466 -68.7421875 60.54296875 C-59.38014139 68.62572905 -49.25630242 68.65033341 -37.42871094 67.90673828 C-25.90222639 66.902324 -13.00263535 60.29196933 -5.2265625 51.71484375 C2.20436613 42.77596517 5.47606473 34.20647862 5.1171875 22.54296875 C4.28359236 15.6847542 1.02065205 11.41043183 -4.15234375 7.0390625 C-12.58507005 1.65545758 -21.50278568 1.41226146 -31.2265625 2.71484375 C-39.82005056 5.20516301 -46.22441735 10.33988616 -51.2265625 17.71484375 C-54.08905821 23.47762389 -53.96375852 29.42207771 -53.2265625 35.71484375 C-51.12766945 41.44401105 -47.57639337 44.80732698 -42.2265625 47.71484375 C-34.60374273 50.25578367 -26.62025123 49.21650102 -19.41796875 45.91015625 C-14.57766792 43.26999216 -10.6810224 40.3508365 -8.703125 34.94140625 C-7.61890271 29.87577751 -7.49967996 24.8366735 -8.2265625 19.71484375 C-10.25017243 16.43673833 -10.25017243 16.43673833 -13.2265625 14.71484375 C-13.8246875 14.28171875 -14.4228125 13.84859375 -15.0390625 13.40234375 C-20.21102125 11.776871 -24.63664953 12.17201072 -29.4765625 14.40234375 C-33.57800229 16.66659637 -36.12704431 19.51580736 -38.2265625 23.71484375 C-38.53302904 29.33188235 -38.53302904 29.33188235 -37.2265625 34.71484375 C-32.61397285 36.25237363 -27.90604651 36.58188926 -23.22265625 35.06640625 C-18.42553007 32.64194075 -16.52245788 29.49030615 -14.2265625 24.71484375 C-13.8965625 24.71484375 -13.5665625 24.71484375 -13.2265625 24.71484375 C-13.63569718 30.54501291 -14.42613375 35.12411177 -18.2265625 39.71484375 C-23.24740074 43.71102113 -27.27505587 44.29675498 -33.640625 44.03515625 C-38.51431517 43.43146653 -41.24494669 41.77605003 -44.5390625 38.21484375 C-47.69595173 33.53797082 -47.70109162 29.17192867 -47.2265625 23.71484375 C-45.23900363 16.50994285 -40.6155715 12.50605622 -34.48828125 8.609375 C-27.47454275 5.29689983 -16.91813998 5.21353896 -9.58984375 7.55859375 C-7.46655666 8.75572323 -5.92832759 9.9744996 -4.2265625 11.71484375 C-3.70449219 12.23820312 -3.18242187 12.7615625 -2.64453125 13.30078125 C1.56399283 18.6107097 1.49506271 24.46268275 1.25390625 31.01953125 C0.12910432 39.67044689 -4.37169378 46.41468753 -11.2265625 51.71484375 C-13.81135058 53.28541022 -16.43416699 54.55955855 -19.2265625 55.71484375 C-19.97164063 56.07191406 -20.71671875 56.42898437 -21.484375 56.796875 C-28.44233098 59.12610528 -38.45502874 58.91067831 -45.2265625 56.15234375 C-54.09072604 51.30501914 -58.96245882 45.38848374 -61.80859375 35.7421875 C-63.72635991 26.44012547 -61.40383213 19.04940936 -56.6015625 11.15234375 C-43.85625584 -6.99722284 -18.70966327 -10.79908634 0 0 Z " fill="#F8F6F9" transform="translate(155.2265625,193.28515625)"/>
<path d="M0 0 C0.83144531 -0.01933594 1.66289062 -0.03867188 2.51953125 -0.05859375 C10.30048192 1.38823017 14.04417803 7.78681348 18.375 13.8125 C19.70311532 15.62335864 21.03255013 17.43325025 22.36328125 19.2421875 C23.01248535 20.12874023 23.66168945 21.01529297 24.33056641 21.92871094 C27.59360067 26.33719636 31.01072064 30.61843678 34.4296875 34.90625 C38.42636677 40.02381099 42.2915232 45.24286426 46.1875 50.4375 C46.5175 33.9375 46.8475 17.4375 47.1875 0.4375 C55.07767341 0.4375 55.07767341 0.4375 57.5625 2.8125 C61.08315653 6.33315653 61.31408635 7.78869094 61.34863281 12.61816406 C61.35824036 13.69978821 61.3678479 14.78141235 61.37774658 15.89581299 C61.38199646 17.06972595 61.38624634 18.24363892 61.390625 19.453125 C61.39632507 20.65684753 61.40202515 21.86057007 61.40789795 23.10076904 C61.41735918 25.65294513 61.42388637 28.2051335 61.42773438 30.75732422 C61.43742532 34.65744463 61.46843306 38.55703495 61.5 42.45703125 C61.50653134 44.9348927 61.5117813 47.41275792 61.515625 49.890625 C61.5279718 51.05644104 61.5403186 52.22225708 61.55303955 53.42340088 C61.52471366 63.75132475 61.52471366 63.75132475 58.1875 68.4375 C53.87506752 71.31245499 50.2402578 71.35411723 45.1875 70.4375 C37.94298358 66.8222753 33.13939896 58.29750722 28.484375 51.91796875 C24.47251185 46.4265791 20.27563628 41.08337231 16.08349609 35.72924805 C14.44678709 33.63561049 12.81581938 31.53766753 11.1875 29.4375 C10.6109668 28.69886719 10.03443359 27.96023437 9.44042969 27.19921875 C8.89032227 26.48378906 8.34021484 25.76835937 7.7734375 25.03125 C7.27634277 24.38865234 6.77924805 23.74605469 6.26708984 23.08398438 C5.1875 21.4375 5.1875 21.4375 5.1875 19.4375 C4.5275 19.4375 3.8675 19.4375 3.1875 19.4375 C3.1875 36.2675 3.1875 53.0975 3.1875 70.4375 C-3.8125 70.4375 -3.8125 70.4375 -6.625 68.1875 C-9.88505913 64.08913995 -11.06076402 61.45399148 -11.0871582 56.19750977 C-11.09669022 55.15285049 -11.10622223 54.10819122 -11.11604309 53.03187561 C-11.11513168 51.90889572 -11.11422028 50.78591583 -11.11328125 49.62890625 C-11.11756638 48.47003403 -11.1218515 47.3111618 -11.12626648 46.11717224 C-11.13200828 43.66690728 -11.13251115 41.21662527 -11.12817383 38.76635742 C-11.12501497 35.01777055 -11.14847222 31.26997361 -11.17382812 27.52148438 C-11.17610123 25.140626 -11.17680456 22.75976549 -11.17578125 20.37890625 C-11.184991 19.25795059 -11.19420074 18.13699493 -11.20368958 16.98207092 C-11.19746078 15.93425949 -11.19123199 14.88644806 -11.18481445 13.80688477 C-11.18544388 12.88851334 -11.1860733 11.97014191 -11.1867218 11.02394104 C-10.26229508 4.63474833 -6.49577561 0.00997815 0 0 Z " fill="#FCFBFD" transform="translate(381.8125,204.5625)"/>
<path d="M0 0 C0.70125 0.4125 1.4025 0.825 2.125 1.25 C10.55708455 6.8713897 15.57008502 15.30825401 18 25 C18.36412447 28.36673656 18.35302506 31.6832729 18.29296875 35.06640625 C18.28872391 35.98590561 18.28447906 36.90540497 18.28010559 37.85276794 C18.26346776 40.75632459 18.22584467 43.65915726 18.1875 46.5625 C18.17243386 48.54491177 18.15874886 50.52733454 18.14648438 52.50976562 C18.11361326 57.34011778 18.06193611 62.16993664 18 67 C10.26312982 67.1465274 10.26312982 67.1465274 7.625 64.625 C3.96381076 60.96381076 3.87346896 59.33444371 3.7890625 54.28515625 C3.76070313 53.12306641 3.73234375 51.96097656 3.703125 50.76367188 C3.65178668 48.33151912 3.60730738 45.89921009 3.5703125 43.46679688 C3.29437195 32.99830238 2.52471041 23.34659477 -5.1328125 15.59375 C-10.92720577 10.64790804 -16.49020852 10.45673715 -23.90625 10.65234375 C-29.57373863 11.28922063 -32.9876921 13.68644956 -36.8125 17.875 C-41.57745623 24.68208033 -41.93726949 31.92208972 -41 40 C-39.39348813 44.77127132 -36.97372618 48.02627382 -33.4375 51.5625 C-27.73067195 53.94899173 -21.83347743 53.98614818 -15.84375 52.4453125 C-10.21893523 49.85493728 -8.26076773 44.45918106 -6 39 C-2.48593741 42.35390424 -2.151561 44.4237656 -1.6875 49.25 C-2.16202486 54.94429833 -3.69680301 59.04756512 -8.12890625 62.8046875 C-15.65872104 67.98996359 -21.90715877 68.75957148 -31 68 C-39.21801533 66.2704713 -45.56839845 62.40230946 -51 56 C-55.67577673 48.4494036 -57.21727544 42.12296247 -57.3125 33.375 C-57.34150391 32.51003906 -57.37050781 31.64507812 -57.40039062 30.75390625 C-57.49253355 21.29862469 -53.80935288 13.21791441 -47.390625 6.25390625 C-35.34362018 -5.32017896 -14.71078708 -8.91562853 0 0 Z " fill="#FBFAFC" transform="translate(312,208)"/>
<path d="M0 0 C7.86533399 -0.07613173 15.73057276 -0.12863448 23.59619141 -0.16479492 C26.27149721 -0.17817551 28.94632149 -0.20033385 31.62158203 -0.22631836 C35.46913751 -0.26275084 39.31636586 -0.27973828 43.1640625 -0.29296875 C44.95500839 -0.31619453 44.95500839 -0.31619453 46.78213501 -0.33988953 C53.65088106 -0.3412783 58.25709606 0.12753884 63.84765625 4.41796875 C66.14729572 7.5751009 65.53750932 11.29502508 65 15 C62.334238 21.09317029 56.84054917 24.62165499 51.71142578 28.64599609 C49.19104463 30.64000948 46.70784861 32.67870753 44.22045898 34.71362305 C38.24209607 39.59926729 32.2330238 44.44771213 26.1875 49.25 C25.60701904 49.71583496 25.02653809 50.18166992 24.4284668 50.66162109 C21.95115989 52.61787629 20.0221717 53.99260943 17 55 C17 55.66 17 56.32 17 57 C18.21582764 56.98428955 19.43165527 56.9685791 20.68432617 56.95239258 C25.20362703 56.89801199 29.72289906 56.86362028 34.24243164 56.83520508 C36.19690823 56.82013699 38.15135112 56.79967876 40.10571289 56.77368164 C42.91821623 56.73721135 45.73027174 56.72025378 48.54296875 56.70703125 C49.41398727 56.69154739 50.2850058 56.67606354 51.18241882 56.66011047 C55.97397634 56.65878717 59.09324283 56.91110073 63 60 C65.26593334 62.34406897 65.98153141 63.3448512 66.07421875 66.6328125 C66.03748047 67.80457031 66.03748047 67.80457031 66 69 C58.13303506 69.09278582 50.26619891 69.16380813 42.39882374 69.20724869 C38.74542185 69.22810093 35.09239503 69.25637408 31.43920898 69.30175781 C27.91193151 69.34530186 24.3850142 69.36915489 20.85748863 69.37950897 C18.86050401 69.39046874 16.86366376 69.42168148 14.86689758 69.45318604 C13.64600937 69.45348816 12.42512115 69.45379028 11.16723633 69.45410156 C9.55840324 69.46742523 9.55840324 69.46742523 7.91706848 69.48101807 C4.2830626 68.88177863 2.62593316 67.52892042 0 65 C-1.78737087 61.42525827 -1.71487509 57.88791716 -1 54 C2.66779121 47.19986156 10.01220348 42.67716607 16.03515625 38.0703125 C21.09026836 34.19077824 25.97639788 30.109277 30.87451172 26.03466797 C35.83754115 21.91860464 40.89079325 17.93301319 46 14 C44.90534424 13.98018066 43.81068848 13.96036133 42.68286133 13.93994141 C38.61052971 13.86370563 34.53854704 13.7750162 30.46655273 13.68261719 C28.70620629 13.64440159 26.94578374 13.60953587 25.18530273 13.578125 C22.65060275 13.53231286 20.11642336 13.47434583 17.58203125 13.4140625 C16.79850784 13.40251129 16.01498444 13.39096008 15.2077179 13.37905884 C11.07375814 13.26811666 7.66212215 12.99752117 4 11 C0.8425272 7.15983038 -0.22480682 4.90411922 0 0 Z " fill="#FCFBFC" transform="translate(183,205)"/>
<path d="M0 0 C9.0309098 0.91417185 9.0309098 0.91417185 13 5 C15.18984971 8.41976203 15.24311006 11.22248581 15.22705078 15.23730469 C15.22689972 16.49830994 15.22674866 17.75931519 15.22659302 19.05853271 C15.21638056 20.42964842 15.20594858 21.80076251 15.1953125 23.171875 C15.19158057 24.57863158 15.18873445 25.98539077 15.18673706 27.39215088 C15.17911476 31.08786239 15.15947845 34.78341575 15.1373291 38.47906494 C15.11684036 42.25294862 15.10772888 46.02685794 15.09765625 49.80078125 C15.07623112 57.20059279 15.04211226 64.6002742 15 72 C5.8373994 71.06312877 5.8373994 71.06312877 2 67 C0.08292747 63.14496092 -0.2444815 60.02020824 -0.22705078 55.7409668 C-0.22689972 54.50005783 -0.22674866 53.25914886 -0.22659302 51.9806366 C-0.21638143 50.63682899 -0.20594946 49.29302305 -0.1953125 47.94921875 C-0.19157931 46.5663117 -0.18873378 45.18340198 -0.18673706 43.80049133 C-0.17912462 40.1721966 -0.15949691 36.54406363 -0.1373291 32.91583252 C-0.11681899 29.20888456 -0.10772433 25.5019103 -0.09765625 21.79492188 C-0.07624855 14.52987441 -0.04214175 7.26495993 0 0 Z " fill="#F8F6F9" transform="translate(343,204)"/>
<path d="M0 0 C1.98 0 3.96 0 6 0 C8.40655248 5.62175527 10.80920137 11.24515643 13.20825195 16.87011719 C14.02488916 18.78333516 14.84259022 20.6960994 15.66137695 22.60839844 C16.83825341 25.35753618 18.01129139 28.10828419 19.18359375 30.859375 C19.55028671 31.71368103 19.91697968 32.56798706 20.29478455 33.44818115 C20.6350618 34.24870911 20.97533905 35.04923706 21.32592773 35.87402344 C21.6257103 36.57573669 21.92549286 37.27744995 22.23435974 38.00042725 C22.99296712 39.98163268 23.53088402 41.93292774 24 44 C21.69 44 19.38 44 17 44 C15.68 41.03 14.36 38.06 13 35 C6.07 35 -0.86 35 -8 35 C-9.32 37.97 -10.64 40.94 -12 44 C-14.31 44 -16.62 44 -19 44 C-16.70598213 36.48709147 -13.62687809 29.40342239 -10.38427734 22.26049805 C-9.49786168 20.30778944 -8.61753745 18.35242574 -7.73828125 16.39648438 C-5.25156568 10.88123947 -2.7349104 5.39798356 0 0 Z " fill="#F6F2F7" transform="translate(343,286)"/>
<path d="M0 0 C1.98 0 3.96 0 6 0 C6 5.94 6 11.88 6 18 C13.59 18 21.18 18 29 18 C29 12.06 29 6.12 29 0 C30.98 0 32.96 0 35 0 C35 14.19 35 28.38 35 43 C33.02 43 31.04 43 29 43 C29 36.4 29 29.8 29 23 C21.41 23 13.82 23 6 23 C6 29.6 6 36.2 6 43 C4.02 43 2.04 43 0 43 C0 28.81 0 14.62 0 0 Z " fill="#FBF9FB" transform="translate(407,287)"/>
<path d="M0 0 C3.125 1.6875 3.125 1.6875 5.125 4.6875 C3.475 6.0075 1.825 7.3275 0.125 8.6875 C-0.37 8.1925 -0.865 7.6975 -1.375 7.1875 C-5.10145843 4.95162494 -7.55411757 5.27598739 -11.875 5.6875 C-14.087981 6.56620914 -14.087981 6.56620914 -14.875 8.6875 C-14.58979342 11.02720356 -14.25944011 13.36204061 -13.875 15.6875 C-12.83859375 16.07421875 -11.8021875 16.4609375 -10.734375 16.859375 C-9.36436851 17.38485694 -7.99458861 17.91092989 -6.625 18.4375 C-5.94308594 18.69015625 -5.26117188 18.9428125 -4.55859375 19.203125 C-0.5710575 20.75168277 2.52651745 22.12927641 5.125 25.6875 C6.19265597 30.21463863 6.17076086 34.80906435 3.87890625 38.92578125 C1.41961995 41.88796399 -0.17386813 43.45378938 -3.875 44.6875 C-16.21404616 45.69241564 -16.21404616 45.69241564 -20.6875 42.875 C-21.409375 42.153125 -22.13125 41.43125 -22.875 40.6875 C-22.875 37.6875 -22.875 37.6875 -21.5 36 C-19.875 34.6875 -19.875 34.6875 -17.875 34.6875 C-17.875 35.3475 -17.875 36.0075 -17.875 36.6875 C-13.27586155 38.85180045 -9.52428317 39.33192023 -4.5625 38.125 C-2.48019665 36.64921965 -2.48019665 36.64921965 -2.125 33.0625 C-2.0425 31.94875 -1.96 30.835 -1.875 29.6875 C-3.03 29.11 -4.185 28.5325 -5.375 27.9375 C-6.46554687 27.38642578 -6.46554687 27.38642578 -7.578125 26.82421875 C-9.05541712 26.0931099 -10.54455944 25.38523486 -12.046875 24.70703125 C-16.37883595 22.71204923 -19.58933392 21.06835999 -21.875 16.6875 C-22.63674608 11.87897787 -22.62985524 8.05204601 -20.25 3.75 C-14.09603849 -1.59422973 -7.58608449 -2.98081075 0 0 Z " fill="#F8F6F9" transform="translate(392.875,286.3125)"/>
<path d="M0 0 C1.25390625 2.140625 1.25390625 2.140625 2 4 C0.35 4.99 -1.3 5.98 -3 7 C-3.99 6.34 -4.98 5.68 -6 5 C-10.2886003 2.57412508 -13.10602613 2.378543 -18 3 C-22.81422112 5.40711056 -25.76304486 8.09590603 -28 13 C-28.73667051 18.90088116 -28.86557913 24.10238421 -26.375 29.5625 C-22.44763755 33.5932141 -19.7537467 35.77730201 -14.0625 36.5 C-9.57472112 36.29366534 -6.75059437 34.35331411 -3 32 C0 32 0 32 3 34 C1.35948219 37.82787489 -0.54199747 39.47222107 -4.39453125 41.2265625 C-10.67960381 43.09229618 -17.57736065 43.34355757 -23.7265625 40.9296875 C-29.44501109 37.42976746 -33.56999174 32.52067126 -35.60546875 26.0859375 C-36.86374997 19.43324276 -36.85026308 12.80045339 -33.3984375 6.8515625 C-25.13348775 -4.09141566 -11.87998399 -8.13766345 0 0 Z " fill="#F6F3F8" transform="translate(319,289)"/>
<path d="M0 0 C2.94474597 1.47237299 2.99193114 3.49660568 4.0625 6.5625 C7.42992353 14.86749468 12.73452761 19.69794441 20.8125 23.4375 C32.29876557 28.10314157 45.76805594 27.10266327 57.30078125 23.16796875 C60.0757535 22.04613199 60.0757535 22.04613199 62.73046875 20.30078125 C63.47941406 19.87152344 64.22835937 19.44226563 65 19 C65.66 19.33 66.32 19.66 67 20 C54.02077125 29.83107539 42.167004 33.35799799 26 32 C16.82819792 30.14778693 7.64118257 24.94606081 2 17.375 C-0.97313104 12.35784137 -2.51409475 8.91208959 -2 3 C-1.34 2.01 -0.68 1.02 0 0 Z " fill="#612A77" transform="translate(72,243)"/>
<path d="M0 0 C4.45850936 0.79616239 5.90783917 1.93313458 8.5 5.625 C9.125 9.125 9.125 9.125 8.5 12.625 C5.90783917 16.31686542 4.45850936 17.45383761 0 18.25 C-4.45850936 17.45383761 -5.90783917 16.31686542 -8.5 12.625 C-9.125 9.125 -9.125 9.125 -8.5 5.625 C-5.90783917 1.93313458 -4.45850936 0.79616239 0 0 Z " fill="#F9F7FA" transform="translate(350.5,181.375)"/>
<path d="M0 0 C2.75979741 3.28585851 4.18309468 6.62228796 5.6875 10.625 C6.12449219 11.77226562 6.56148438 12.91953125 7.01171875 14.1015625 C8 17 8 17 8 19 C3.05 19 -1.9 19 -7 19 C-6.15199097 14.75995483 -5.05741374 11.25219111 -3.5 7.25 C-3.0565625 6.10015625 -2.613125 4.9503125 -2.15625 3.765625 C-1 1 -1 1 0 0 Z " fill="#642E7F" transform="translate(345,295)"/>
<path d="M0 0 C0.66 0 1.32 0 2 0 C2 16.83 2 33.66 2 51 C1.01 50.34 0.02 49.68 -1 49 C-1.32279968 46.89926147 -1.32279968 46.89926147 -1.2487793 44.27490234 C-1.22853195 43.29403656 -1.20828461 42.31317078 -1.18742371 41.30258179 C-1.15006607 40.24108917 -1.11270844 39.17959656 -1.07421875 38.0859375 C-1.04777786 37.00116119 -1.02133698 35.91638489 -0.99409485 34.79873657 C-0.90611087 31.32361165 -0.79703706 27.849506 -0.6875 24.375 C-0.62426434 22.02347438 -0.56239754 19.67191152 -0.50195312 17.3203125 C-0.35053463 11.54634856 -0.1817832 5.77308336 0 0 Z " fill="#69368A" transform="translate(427,205)"/>
<path d="M0 0 C1.65 0 3.3 0 5 0 C5 3.96 5 7.92 5 12 C3.35 11.67 1.7 11.34 0 11 C0 7.37 0 3.74 0 0 Z " fill="#693581" transform="translate(156,213)"/>
<path d="M0 0 C0.33 0 0.66 0 1 0 C1.33 1.65 1.66 3.3 2 5 C2.33 5 2.66 5 3 5 C2.88490339 6.41750563 2.75746342 7.83401169 2.625 9.25 C2.55539063 10.03890625 2.48578125 10.8278125 2.4140625 11.640625 C1.98492887 14.085877 1.21399362 15.84836903 0 18 C-2.18226237 14.72660644 -2.210226 14.33398617 -1.6875 10.6875 C-1.57921875 9.89859375 -1.4709375 9.1096875 -1.359375 8.296875 C-0.47727273 2.65909091 -0.47727273 2.65909091 0 0 Z " fill="#602879" transform="translate(157,218)"/>
<path d="M0 0 C0.66 0.33 1.32 0.66 2 1 C0.3990869 2.15037471 -1.20585225 3.29514816 -2.8125 4.4375 C-4.15248047 5.39462891 -4.15248047 5.39462891 -5.51953125 6.37109375 C-8 8 -8 8 -11 9 C-11.99 8.01 -12.98 7.02 -14 6 C-13.24074219 5.73445313 -12.48148437 5.46890625 -11.69921875 5.1953125 C-10.70535156 4.84210938 -9.71148437 4.48890625 -8.6875 4.125 C-7.70136719 3.77695312 -6.71523437 3.42890625 -5.69921875 3.0703125 C-2.84405623 2.04694076 -2.84405623 2.04694076 0 0 Z " fill="#64307A" transform="translate(137,262)"/>
<path d="M0 0 C0.99 0.33 1.98 0.66 3 1 C2.51789063 1.47050781 2.03578125 1.94101562 1.5390625 2.42578125 C0.59160156 3.35970703 0.59160156 3.35970703 -0.375 4.3125 C-1.00148438 4.92738281 -1.62796875 5.54226563 -2.2734375 6.17578125 C-4.18086607 8.08812528 -4.18086607 8.08812528 -6 11 C-5.62671065 5.64951939 -4.0042343 3.49087093 0 0 Z " fill="#5C2377" transform="translate(297,293)"/>
<path d="M0 0 C0.99 0.33 1.98 0.66 3 1 C1.73742767 2.17560179 0.46462916 3.34022865 -0.8125 4.5 C-1.87404297 5.47453125 -1.87404297 5.47453125 -2.95703125 6.46875 C-5 8 -5 8 -8 8 C-7.04578192 6.85073734 -6.08647955 5.70569459 -5.125 4.5625 C-4.59132813 3.92441406 -4.05765625 3.28632813 -3.5078125 2.62890625 C-2 1 -2 1 0 0 Z " fill="#5F277C" transform="translate(281,220)"/>
<path d="M0 0 C0.66 0.66 1.32 1.32 2 2 C-0.31 4.31 -2.62 6.62 -5 9 C-5.66 8.34 -6.32 7.68 -7 7 C-4.69 4.69 -2.38 2.38 0 0 Z " fill="#5D2577" transform="translate(112,201)"/>
<path d="M0 0 C0.33 0 0.66 0 1 0 C1 3.96 1 7.92 1 12 C0.01 11.67 -0.98 11.34 -2 11 C-1.34 7.37 -0.68 3.74 0 0 Z " fill="#6F3D86" transform="translate(160,213)"/>
<path d="M0 0 C-0.33 1.32 -0.66 2.64 -1 4 C-6.94 3.01 -6.94 3.01 -13 2 C-13 1.67 -13 1.34 -13 1 C-11.20843648 0.83222817 -9.4167455 0.66581706 -7.625 0.5 C-6.62726563 0.4071875 -5.62953125 0.314375 -4.6015625 0.21875 C-2 0 -2 0 0 0 Z " fill="#54186C" transform="translate(118,270)"/>
<path d="M0 0 C0.33 0 0.66 0 1 0 C1.33 1.65 1.66 3.3 2 5 C2.33 5 2.66 5 3 5 C3 6.65 3 8.3 3 10 C2.34 9.34 1.68 8.68 1 8 C0.34 8.99 -0.32 9.98 -1 11 C-0.67 7.37 -0.34 3.74 0 0 Z " fill="#561A71" transform="translate(157,218)"/>
</svg>
